<svg width="126" height="19" viewBox="0 0 126 19" fill="none" xmlns="http://www.w3.org/2000/svg">
<path fill-rule="evenodd" clip-rule="evenodd" class="logo-string" d="M44.2031 4.96094V15H42.6406V4.96094H39V3.55469H48.0078V4.96094H44.2031ZM51.9922 8.0625C51.6693 7.83854 51.3438 7.72656 51.0156 7.72656C50.4896 7.72656 50.03 7.96875 49.6367 8.45312C49.2435 8.9375 49.0469 9.52083 49.0469 10.2031V15H47.5625V6.63281H49.0469V7.96875C49.5885 6.97395 50.3932 6.47656 51.4609 6.47656C51.7266 6.47656 52.1094 6.52344 52.6094 6.61719L51.9922 8.0625ZM58.3906 14.0391C57.7969 14.7839 56.888 15.1562 55.6641 15.1562C55.0078 15.1562 54.4388 14.918 53.957 14.4414C53.4753 13.9648 53.2344 13.3724 53.2344 12.6641C53.2344 11.8151 53.6055 11.0977 54.3477 10.5117C55.0898 9.92578 56.0365 9.63281 57.1875 9.63281C57.5 9.63281 57.8542 9.70052 58.25 9.83594C58.25 8.48176 57.6458 7.80469 56.4375 7.80469C55.5104 7.80469 54.7969 8.05469 54.2969 8.55469L53.6719 7.3125C53.9531 7.08333 54.3424 6.88672 54.8398 6.72266C55.3372 6.55859 55.8125 6.47656 56.2656 6.47656C57.4792 6.47656 58.3607 6.7526 58.9102 7.30469C59.4596 7.85677 59.7344 8.73437 59.7344 9.9375V12.9375C59.7344 13.6719 59.9531 14.1615 60.3906 14.4062V15.1484C59.7865 15.1484 59.3346 15.0625 59.0352 14.8906C58.7357 14.7187 58.5208 14.4349 58.3906 14.0391ZM58.25 10.8906C57.7812 10.7865 57.4531 10.7344 57.2656 10.7344C56.5156 10.7344 55.9036 10.9271 55.4297 11.3125C54.9557 11.6979 54.7188 12.1536 54.7188 12.6797C54.7188 13.5495 55.2318 13.9844 56.2578 13.9844C57.0078 13.9844 57.6719 13.6276 58.25 12.9141V10.8906ZM67.375 14.9922V14.375C66.8594 14.8906 66.1094 15.1484 65.125 15.1484C64.0781 15.1484 63.2292 14.7734 62.5781 14.0234C61.9271 13.2734 61.6016 12.2734 61.6016 11.0234C61.6016 9.76822 61.9766 8.69662 62.7266 7.80859C63.4766 6.92057 64.3698 6.47656 65.4062 6.47656C66.2708 6.47656 66.9271 6.67969 67.375 7.08594V3.20312H68.8594V14.9922H67.375ZM67.375 8.57031C67 8.00781 66.487 7.72656 65.8359 7.72656C65.0391 7.72656 64.3945 8.02343 63.9023 8.61719C63.4102 9.21094 63.1641 9.96614 63.1641 10.8828C63.1641 12.8984 64.0807 13.9062 65.9141 13.9062C66.1484 13.9062 66.4297 13.832 66.7578 13.6836C67.0859 13.5352 67.2917 13.3776 67.375 13.2109V8.57031ZM72.5156 3.46875C72.7708 3.46875 72.9883 3.55859 73.168 3.73828C73.3477 3.91797 73.4375 4.13281 73.4375 4.38281C73.4375 4.63802 73.3477 4.85547 73.168 5.03516C72.9883 5.21484 72.7708 5.30469 72.5156 5.30469C72.2656 5.30469 72.0508 5.21484 71.8711 5.03516C71.6914 4.85547 71.6016 4.63802 71.6016 4.38281C71.6016 4.1276 71.6901 3.91146 71.8672 3.73438C72.0443 3.55729 72.2604 3.46875 72.5156 3.46875ZM71.7031 15V7.88281H70.5547V6.63281H73.1875V15H71.7031ZM80.6953 15V10.1328C80.6953 9.24218 80.5612 8.61849 80.293 8.26172C80.0247 7.90495 79.5755 7.72656 78.9453 7.72656C78.6068 7.72656 78.2526 7.82812 77.8828 8.03125C77.513 8.23438 77.2292 8.48437 77.0312 8.78125V15H75.5469V6.63281H76.5625L77.0312 7.71094C77.5208 6.88802 78.3203 6.47656 79.4297 6.47656C81.263 6.47656 82.1797 7.59114 82.1797 9.82031V15H80.6953ZM83.9844 17.2891L84.7891 16.1016C85.6536 16.6797 86.4505 16.9688 87.1797 16.9688C87.8516 16.9688 88.3815 16.8529 88.7695 16.6211C89.1576 16.3893 89.3516 16.1016 89.3516 15.7578C89.3516 15.0807 88.862 14.7422 87.8828 14.7422C87.7161 14.7422 87.4141 14.7839 86.9766 14.8672C86.5391 14.9505 86.1979 14.9922 85.9531 14.9922C84.7656 14.9922 84.1719 14.5443 84.1719 13.6484C84.1719 13.3724 84.3112 13.1224 84.5898 12.8984C84.8685 12.6745 85.2135 12.513 85.625 12.4141C84.4479 11.862 83.8594 10.9037 83.8594 9.53906C83.8594 8.66406 84.1641 7.9349 84.7734 7.35156C85.3828 6.76823 86.1354 6.47656 87.0312 6.47656C87.8542 6.47656 88.4974 6.64583 88.9609 6.98438L89.7031 6.09375L90.6719 7.00781L89.7812 7.67969C90.1615 8.17448 90.3516 8.82031 90.3516 9.61719C90.3516 10.4609 90.0885 11.1693 89.5625 11.7422C89.0365 12.3151 88.3464 12.6432 87.4922 12.7266L86.2656 12.8516C86.1198 12.8672 85.9245 12.9232 85.6797 13.0195C85.4349 13.1159 85.3125 13.2422 85.3125 13.3984C85.3125 13.612 85.5677 13.7188 86.0781 13.7188C86.3021 13.7188 86.651 13.6784 87.125 13.5977C87.599 13.5169 87.9505 13.4766 88.1797 13.4766C89.0026 13.4766 89.6445 13.6732 90.1055 14.0664C90.5664 14.4596 90.7969 15.0052 90.7969 15.7031C90.7969 16.474 90.4518 17.0964 89.7617 17.5703C89.0716 18.0443 88.1979 18.2812 87.1406 18.2812C86.599 18.2812 86.0286 18.1849 85.4297 17.9922C84.8307 17.7995 84.349 17.5651 83.9844 17.2891ZM87.1328 7.67188C86.6172 7.67188 86.1966 7.85417 85.8711 8.21875C85.5456 8.58333 85.3828 9.02604 85.3828 9.54688C85.3828 10.1302 85.5404 10.6133 85.8555 10.9961C86.1706 11.3789 86.5964 11.5703 87.1328 11.5703C87.6589 11.5703 88.0703 11.3841 88.3672 11.0117C88.6641 10.6393 88.8125 10.151 88.8125 9.54688C88.8125 9.02604 88.6523 8.58333 88.332 8.21875C88.0117 7.85417 87.612 7.67188 87.1328 7.67188ZM96.4219 15.1562H95.6328L91.3672 3.55469H93.1016L96.0469 11.9844L98.8828 3.55469H100.562L96.4219 15.1562ZM102.961 3.46875C103.216 3.46875 103.434 3.55859 103.613 3.73828C103.793 3.91797 103.883 4.13281 103.883 4.38281C103.883 4.63802 103.793 4.85547 103.613 5.03516C103.434 5.21484 103.216 5.30469 102.961 5.30469C102.711 5.30469 102.496 5.21484 102.316 5.03516C102.137 4.85547 102.047 4.63802 102.047 4.38281C102.047 4.1276 102.135 3.91146 102.312 3.73438C102.49 3.55729 102.706 3.46875 102.961 3.46875ZM102.148 15V7.88281H101V6.63281H103.633V15H102.148ZM113.039 10.9609H107.008C107.008 11.9401 107.276 12.6927 107.812 13.2188C108.286 13.6771 108.896 13.9062 109.641 13.9062C110.49 13.9062 111.198 13.6589 111.766 13.1641L112.391 14.2344C112.161 14.4635 111.81 14.6615 111.336 14.8281C110.742 15.0469 110.081 15.1562 109.352 15.1562C108.299 15.1562 107.406 14.7995 106.672 14.0859C105.854 13.2995 105.445 12.2422 105.445 10.9141C105.445 9.53385 105.865 8.42709 106.703 7.59375C107.453 6.84895 108.341 6.47656 109.367 6.47656C110.56 6.47656 111.495 6.8125 112.172 7.48438C112.828 8.13021 113.156 8.98697 113.156 10.0547C113.156 10.3828 113.117 10.6849 113.039 10.9609ZM109.438 7.72656C108.776 7.72656 108.221 7.9401 107.773 8.36719C107.346 8.77344 107.104 9.27864 107.047 9.88281H111.68C111.68 9.28385 111.492 8.78386 111.117 8.38281C110.706 7.94531 110.146 7.72656 109.438 7.72656ZM122.453 15.1562H122.062L119.609 9.46094L117.164 15.1562H116.773L113.781 6.60938H115.367L117.156 12.1016L119.383 6.60938H119.773L122.07 12.1016L123.992 6.60938H125.453L122.453 15.1562Z" fill="#F0F3FA"/>
<path fill-rule="evenodd" clip-rule="evenodd" class="logo-cloud" d="M29.0317 7.38248C29.599 8.20545 29.9478 9.19057 29.9946 10.2542C31.7452 10.8704 33 12.5387 33 14.5C33 16.9853 30.9853 19 28.5 19H6C4.35376 19 2.86238 18.337 1.77828 17.2635L11.3238 9.70659C11.6744 9.89384 12.0748 10 12.5 10C12.8814 10 13.2429 9.91458 13.5663 9.76182L18.1166 13.7433C18.0409 13.982 18 14.2362 18 14.5C18 15.8807 19.1193 17 20.5 17C21.8807 17 23 15.8807 23 14.5C23 14.1776 22.939 13.8694 22.8278 13.5864L29.0317 7.38248ZM27.6175 5.96826L21.4136 12.1722C21.1306 12.061 20.8224 12 20.5 12C20.1186 12 19.7571 12.0854 19.4337 12.2382L14.8834 8.25673C14.9591 8.01802 15 7.76378 15 7.5C15 6.11929 13.8807 5 12.5 5C11.1193 5 10 6.11929 10 7.5C10 7.72071 10.0286 7.93474 10.0823 8.13858L0.609477 15.6379C0.219151 14.8418 0 13.9465 0 13C0 9.68629 2.68629 7 6 7C6.02064 7 6.04126 7.0001 6.06185 7.00031C6.55381 3.05385 9.92027 0 14 0C17.6456 0 20.7216 2.43849 21.686 5.77338C22.5093 5.2822 23.4717 5 24.5 5C25.6575 5 26.7315 5.35756 27.6175 5.96826Z" fill="#2196F3"/>
</svg>
