<svg width="24" height="24" viewBox="0 0 24 24" fill="none" xmlns="http://www.w3.org/2000/svg">
<path fill-rule="evenodd" clip-rule="evenodd" d="M1.5 9.5C1.5 8.94772 1.94772 8.5 2.5 8.5L6.5 8.5C7.05228 8.5 7.5 8.94772 7.5 9.5V19.5C7.5 20.0523 7.05228 20.5 6.5 20.5H2.5C1.94772 20.5 1.5 20.0523 1.5 19.5L1.5 9.5Z" stroke="#D928DC"/>
<path fill-rule="evenodd" clip-rule="evenodd" d="M11.5 2.55317C11.5 2.52494 11.5247 2.50309 11.5528 2.5066L12.5232 2.6279C14.2238 2.84047 15.5 4.28613 15.5 6V6V8.5H18.5722C20.5504 8.5 21.987 10.3809 21.4665 12.2894L20.1029 17.2894C19.7469 18.5945 18.5615 19.5 17.2086 19.5H15H10L8.5 18.5H7.5L7.5 10.5H8.5L11.5 6.5V2.55317Z" stroke="#D928DC" stroke-linejoin="round"/>
</svg>
