<svg width="24" height="24" viewBox="0 0 24 24" fill="none" xmlns="http://www.w3.org/2000/svg">
<path fill-rule="evenodd" clip-rule="evenodd" d="M1 9C1 8.44772 1.44772 8 2 8H7C7.55228 8 8 8.44772 8 9V20C8 20.5523 7.55228 21 7 21H2C1.44772 21 1 20.5523 1 20V9Z" fill="#D928DC"/>
<path d="M11 2.55325C11 2.22426 11.2883 1.96972 11.6148 2.01053L12.5852 2.13183C14.536 2.37569 16 4.03405 16 6.00007V8.00007H18.5722C20.8801 8.00007 22.5561 10.1945 21.9489 12.421L20.5853 17.421C20.17 18.9437 18.7869 20.0001 17.2086 20.0001H10C9.90129 20.0001 9.80478 19.9709 9.72265 19.9161L9.22265 19.5828C9.08355 19.49 9 19.3339 9 19.1667V9.16674C9 9.05856 9.03509 8.95329 9.1 8.86674L11 6.33341V2.55325Z" fill="#D928DC"/>
</svg>
