<svg width="24" height="24" viewBox="0 0 24 24" fill="none" xmlns="http://www.w3.org/2000/svg">
<path d="M6.50015 20C6.224 20 6.00015 20.2239 6.00015 20.5C6.00015 20.7761 6.224 21 6.50015 21V20ZM18.5001 21C18.7763 21 19.0001 20.7761 19.0001 20.5C19.0001 20.2239 18.7763 20 18.5001 20V21ZM4.50002 4H20.5001V3H4.50002V4ZM12.5001 17H4.50032V18H12.5001V17ZM12.0001 17.5V20.5H13.0001V17.5H12.0001ZM6.50015 21H12.5001V20H6.50015V21ZM12.5001 21H18.5001V20H12.5001V21ZM20.5001 17H12.5001V18H20.5001V17ZM3.00002 4.50004L3.00032 16.5L4.00032 16.5L4.00002 4.50001L3.00002 4.50004ZM21.0001 4.5V16.5H22.0001V4.5H21.0001ZM4.50032 17C4.22418 17 4.00033 16.7762 4.00032 16.5L3.00032 16.5C3.00034 17.3284 3.6719 18 4.50032 18V17ZM20.5001 18C21.3286 18 22.0001 17.3284 22.0001 16.5H21.0001C21.0001 16.7761 20.7763 17 20.5001 17V18ZM20.5001 4C20.7763 4 21.0001 4.22386 21.0001 4.5H22.0001C22.0001 3.67157 21.3286 3 20.5001 3V4ZM4.50002 3C3.67158 3 3 3.6716 3.00002 4.50004L4.00002 4.50001C4.00002 4.22387 4.22388 4 4.50002 4V3Z" fill="#131722"/>
<path d="M6.14645 13.1464C5.95118 13.3417 5.95118 13.6583 6.14645 13.8536C6.34171 14.0488 6.65829 14.0488 6.85355 13.8536L6.14645 13.1464ZM11 9L11.3536 8.64645C11.1583 8.45118 10.8417 8.45118 10.6464 8.64645L11 9ZM14 12L13.6464 12.3536C13.8417 12.5488 14.1583 12.5488 14.3536 12.3536L14 12ZM18.8536 7.85355C19.0488 7.65829 19.0488 7.34171 18.8536 7.14645C18.6583 6.95118 18.3417 6.95118 18.1464 7.14645L18.8536 7.85355ZM6.85355 13.8536L11.3536 9.35355L10.6464 8.64645L6.14645 13.1464L6.85355 13.8536ZM10.6464 9.35355L13.6464 12.3536L14.3536 11.6464L11.3536 8.64645L10.6464 9.35355ZM14.3536 12.3536L18.8536 7.85355L18.1464 7.14645L13.6464 11.6464L14.3536 12.3536Z" fill="#131722"/>
</svg>
