<svg width="24" height="24" viewBox="0 0 24 24" fill="none" xmlns="http://www.w3.org/2000/svg">
<path d="M6.50015 20C6.224 20 6.00015 20.2239 6.00015 20.5C6.00015 20.7761 6.224 21 6.50015 21V20ZM18.5001 21C18.7763 21 19.0001 20.7761 19.0001 20.5C19.0001 20.2239 18.7763 20 18.5001 20V21ZM4.50002 4H20.5001V3H4.50002V4ZM12.5001 17H4.50032V18H12.5001V17ZM12.0001 17.5V20.5H13.0001V17.5H12.0001ZM6.50015 21H12.5001V20H6.50015V21ZM12.5001 21H18.5001V20H12.5001V21ZM20.5001 17H12.5001V18H20.5001V17ZM3.00002 4.50004L3.00032 16.5L4.00032 16.5L4.00002 4.50001L3.00002 4.50004ZM21.0001 4.5V16.5H22.0001V4.5H21.0001ZM4.50032 17C4.22418 17 4.00033 16.7762 4.00032 16.5L3.00032 16.5C3.00034 17.3284 3.6719 18 4.50032 18V17ZM20.5001 18C21.3286 18 22.0001 17.3284 22.0001 16.5H21.0001C21.0001 16.7761 20.7763 17 20.5001 17V18ZM20.5001 4C20.7763 4 21.0001 4.22386 21.0001 4.5H22.0001C22.0001 3.67157 21.3286 3 20.5001 3V4ZM4.50002 3C3.67158 3 3 3.6716 3.00002 4.50004L4.00002 4.50001C4.00002 4.22387 4.22388 4 4.50002 4V3Z" fill="#D928DC"/>
<path d="M6.16552 13.1284C5.96026 13.3131 5.94362 13.6292 6.12835 13.8345C6.31308 14.0397 6.62923 14.0564 6.83448 13.8716L6.16552 13.1284ZM11.5 9L11.916 8.72265C11.8355 8.60184 11.7064 8.522 11.5623 8.5039C11.4183 8.4858 11.2734 8.53122 11.1655 8.62835L11.5 9ZM13.5 12L13.084 12.2773C13.1645 12.3982 13.2936 12.478 13.4377 12.4961C13.5817 12.5142 13.7266 12.4688 13.8345 12.3716L13.5 12ZM18.8345 7.87165C19.0397 7.68692 19.0564 7.37077 18.8716 7.16552C18.6869 6.96026 18.3708 6.94362 18.1655 7.12835L18.8345 7.87165ZM6.83448 13.8716L11.8345 9.37165L11.1655 8.62835L6.16552 13.1284L6.83448 13.8716ZM11.084 9.27735L13.084 12.2773L13.916 11.7227L11.916 8.72265L11.084 9.27735ZM13.8345 12.3716L18.8345 7.87165L18.1655 7.12835L13.1655 11.6284L13.8345 12.3716Z" fill="#D928DC"/>
</svg>
